{"title":"Prince Of Persia The Sands Of Time *2010* [LektorPL][720p.BRRip.","uid":5817403,"size":3235176448,"categoryP":"video","categoryS":"hd___movies","magnet":"?xt=urn:btih:efeee683ea2a4c2f99666eea3af62509e9f9ffc7&amp;dn=Prince+Of+Persia+The+Sands+Of+Time+%2A2010%2A+%5BLektorPL%5D%5B720p.BRRip.&amp;tr=udp%3A%2F%2Ftracker.openbittorrent.com%3A80&amp;tr=udp%3A%2F%2Fopen.demonii.com%3A1337&amp;tr=udp%3A%2F%2Ftracker.coppersurfer.tk%3A6969&amp;tr=udp%3A%2F%2Fexodus.desync.com%3A6969","seeders":0,"leechers":0,"uploader":"rodimus7","files":1,"time":1283909896,"description":"Directed by: \nMike Newell \nWriter: \nJordan Mechner \nJeffrey Nachmanoff \nPremiere: \n2010-05-21 (Poland) \n2010-05-26 (World) \n2010-09-10 (Poland DVD) \nGenre: \nAdventure | costume | Fantasy \nDistributor: \nForum Film Poland \n\nCast: \nJake Gyllenhaal ... Prince Dastan \nGemma Arterton ... Tamina \nBen Kingsley ... Nizam \nAlfred Molina ... Sheikh Amar \nSteve Toussaint ... Seso \nToby Kebbell ... Garsiv \nRichard Coyle ... Tus \nRonald Pickup ... King Sharaman \n\nSynopsis: \nIX century medieval Persia. The main character - a young prince, during one of the expeditions of war encounters a magical blade with powerful capabilities and mysterious hourglass concealed in the Sands of Time, which can replace humans in the sand monsters. (Description of the distributor) \n\nGeneral \nComplete name: Prince.Of.Persia.The.Sands.Of.Time.2010.PL.720p.BRRip.XviD.AC3-buli01.avi \nFormat: AVI \nFormat / Info: Audio Video Interleave \nFormat profile: OpenDML \nFile size: 3.01 GiB \nDuration: 1h 51mn \nOverall bit rate: 3 881 Kbps \nWriting application: VirtualDubMod 1.5.10.2 (build 2540/release) \nWriting library: VirtualDubMod build 2540/release \n\nVideo \nID: 0 \nFormat: MPEG-4 Visual \nFormat profiles: Advanced Simple @ L5 \nFormat settings, BVOP: Yes \nFormat settings, qpel: No. \nFormat settings, GMC: No warppoints \nFormat settings, Matrix: Custom \nMuxing mode: Packed bitstream \nCodec ID: XVID \nCodec ID / Hint: XviD \nDuration: 1h 51mn \nBit rate: 3 422 Kbps \nWidth: 1 280 pixels \nHeight: 544 pixels \nDisplay aspect ratio: 2.35:1 \nFrame rate: 25.000 fps \nOriginal frame rate: 23.976 fps \nColor space: YUV \nSubsampling Chroma: 4:2:0 \nBit depth: 8 bits \nScan type: Progressive \nBits / (Pixel * Frame): 0.197 \nStream size: 2.66 GiB (88%) \nWriting library: XviD 1.2.1 (UTC 2008-12-04) \n\nAudio \nID: 1 \nFormat: AC-3 \nFormat / Info: Audio Coding 3 \nMode extension: CM (complete main) \nCodec ID: 2000 \nDuration: 1h 51mn \nBit rate mode: Constant \nBit rate: 448 Kbps \nChannel (s): 6 channels \nChannel positions: Front: L C R Side: L R, LFE \nSampling rate: 48.0 KHz \nBit depth: 16 bits \nVideo delay: 900ms \nStream size: 356 MiB (12%) \nAlignment: Split Across interleaves \nInterleave, duration: 40 ms (1.00 video frame) \nInterleave, preload duration: 500 ms","torrent":{"xt":"urn:btih:efeee683ea2a4c2f99666eea3af62509e9f9ffc7","amp;dn":"Prince+Of+Persia+The+Sands+Of+Time+%2A2010%2A+%5BLektorPL%5D%5B720p.BRRip.","amp;tr":["udp%3A%2F%2Ftracker.openbittorrent.com%3A80","udp%3A%2F%2Fopen.demonii.com%3A1337","udp%3A%2F%2Ftracker.coppersurfer.tk%3A6969","udp%3A%2F%2Fexodus.desync.com%3A6969"],"infoHash":"efeee683ea2a4c2f99666eea3af62509e9f9ffc7","infoHashBuffer":{"type":"Buffer","data":[239,238,230,131,234,42,76,47,153,102,110,234,58,246,37,9,233,249,255,199]},"announce":[],"urlList":[]}}